<svg width="26" height="17" viewBox="0 0 26 17" fill="none" xmlns="http://www.w3.org/2000/svg">
<path id="Vector" d="M11.2234 7.66676C11.7874 7.03014 12.1515 6.24977 12.2723 5.41825C12.3932 4.58674 12.2658 3.73901 11.9053 2.97568C11.5448 2.21236 10.9663 1.56549 10.2385 1.11187C9.5107 0.65824 8.66412 0.416904 7.79925 0.416504H1.98834C1.64586 0.416504 1.31741 0.548603 1.07524 0.783741C0.83307 1.01888 0.697021 1.3378 0.697021 1.67033V15.0445C0.697021 15.377 0.83307 15.6959 1.07524 15.9311C1.31741 16.1662 1.64586 16.2983 1.98834 16.2983H8.22969C9.26543 16.2976 10.2749 15.9815 11.1158 15.3945C11.9568 14.8074 12.5869 13.979 12.9175 13.0259C13.248 12.0729 13.2624 11.0431 12.9585 10.0817C12.6545 9.12029 12.0477 8.27566 11.2234 7.66676ZM3.27965 2.92416H7.79925C8.31297 2.92416 8.80565 3.12231 9.1689 3.47501C9.53215 3.82772 9.73623 4.3061 9.73623 4.8049C9.73623 5.3037 9.53215 5.78208 9.1689 6.13478C8.80565 6.48749 8.31297 6.68564 7.79925 6.68564H3.27965V2.92416ZM8.22969 13.7907H3.27965V9.1933H8.22969C8.85757 9.1933 9.45973 9.43548 9.9037 9.86656C10.3477 10.2977 10.5971 10.8823 10.5971 11.492C10.5971 12.1016 10.3477 12.6863 9.9037 13.1174C9.45973 13.5485 8.85757 13.7907 8.22969 13.7907ZM15.3319 2.92416C15.3319 2.59162 15.468 2.27271 15.7101 2.03757C15.9523 1.80243 16.2808 1.67033 16.6232 1.67033H23.5103C23.8527 1.67033 24.1812 1.80243 24.4233 2.03757C24.6655 2.27271 24.8016 2.59162 24.8016 2.92416C24.8016 3.25669 24.6655 3.57561 24.4233 3.81075C24.1812 4.04589 23.8527 4.17799 23.5103 4.17799H16.6232C16.2808 4.17799 15.9523 4.04589 15.7101 3.81075C15.468 3.57561 15.3319 3.25669 15.3319 2.92416ZM20.0667 5.43181C18.5827 5.43181 17.1594 6.00424 16.11 7.02318C15.0606 8.04211 14.471 9.42408 14.471 10.8651C14.471 12.3061 15.0606 13.688 16.11 14.707C17.1594 15.7259 18.5827 16.2983 20.0667 16.2983C20.9131 16.3005 21.7488 16.1143 22.5095 15.7539C22.6657 15.6842 22.8059 15.5849 22.922 15.4618C23.0382 15.3387 23.1278 15.1944 23.1857 15.0372C23.2436 14.8801 23.2687 14.7133 23.2593 14.5466C23.25 14.38 23.2064 14.2168 23.1313 14.0667C23.0561 13.9166 22.9509 13.7825 22.8217 13.6724C22.6925 13.5623 22.5419 13.4784 22.3789 13.4255C22.2158 13.3727 22.0435 13.352 21.8721 13.3646C21.7007 13.3772 21.5336 13.423 21.3807 13.4991C20.9713 13.6923 20.5219 13.7921 20.0667 13.7907C19.4967 13.7901 18.9384 13.6327 18.4566 13.3369C17.9748 13.041 17.5891 12.6187 17.3442 12.1189H24.3711C24.7136 12.1189 25.0421 11.9868 25.2842 11.7517C25.5264 11.5165 25.6624 11.1976 25.6624 10.8651C25.6607 9.42459 25.0706 8.04358 24.0216 7.02501C22.9726 6.00644 21.5503 5.43347 20.0667 5.43181ZM17.3442 9.61124C17.5885 9.11093 17.9741 8.68821 18.456 8.39221C18.9379 8.09621 19.4965 7.93908 20.0667 7.93908C20.637 7.93908 21.1956 8.09621 21.6775 8.39221C22.1594 8.68821 22.5449 9.11093 22.7893 9.61124H17.3442Z" fill="#ECBC61"/>
</svg>
