<svg width="22" height="22" viewBox="0 0 22 22" fill="none" xmlns="http://www.w3.org/2000/svg">
<g id="akar-icons:instagram-fill" clip-path="url(#clip0_1_35)">
<g id="Group">
<path id="Vector" fill-rule="evenodd" clip-rule="evenodd" d="M6.84294 0.977126C7.91819 0.927626 8.26102 0.916626 11 0.916626C13.739 0.916626 14.0819 0.928543 15.1562 0.977126C16.2305 1.02571 16.9639 1.19713 17.6055 1.44554C18.2774 1.69946 18.887 2.09638 19.3912 2.60971C19.9045 3.11296 20.3005 3.72163 20.5535 4.39446C20.8029 5.03613 20.9734 5.76946 21.0229 6.84196C21.0724 7.91904 21.0834 8.26188 21.0834 11C21.0834 13.739 21.0714 14.0818 21.0229 15.157C20.9743 16.2295 20.8029 16.9629 20.5535 17.6045C20.3005 18.2775 19.9039 18.8871 19.3912 19.3911C18.887 19.9045 18.2774 20.3005 17.6055 20.5535C16.9639 20.8028 16.2305 20.9733 15.158 21.0228C14.0819 21.0723 13.739 21.0833 11 21.0833C8.26102 21.0833 7.91819 21.0714 6.84294 21.0228C5.77044 20.9742 5.0371 20.8028 4.39544 20.5535C3.72253 20.3004 3.11286 19.9038 2.60885 19.3911C2.09587 18.8876 1.69889 18.2782 1.4456 17.6055C1.19719 16.9638 1.02669 16.2305 0.977187 15.158C0.927687 14.0809 0.916687 13.738 0.916687 11C0.916687 8.26096 0.928604 7.91813 0.977187 6.84379C1.02577 5.76946 1.19719 5.03613 1.4456 4.39446C1.69927 3.7217 2.09655 3.11233 2.60977 2.60879C3.11306 2.09592 3.72212 1.69895 4.39452 1.44554C5.03619 1.19713 5.76952 1.02663 6.84202 0.977126H6.84294ZM15.0746 2.79213C14.0113 2.74354 13.6923 2.73346 11 2.73346C8.30777 2.73346 7.98877 2.74354 6.92544 2.79213C5.94185 2.83704 5.40835 3.00113 5.05269 3.13954C4.58244 3.32288 4.24602 3.54013 3.8931 3.89304C3.55856 4.21851 3.3011 4.61472 3.1396 5.05263C3.00119 5.40829 2.8371 5.94179 2.79219 6.92538C2.7436 7.98871 2.73352 8.30771 2.73352 11C2.73352 13.6922 2.7436 14.0112 2.79219 15.0745C2.8371 16.0581 3.00119 16.5916 3.1396 16.9473C3.30094 17.3845 3.55852 17.7815 3.8931 18.1069C4.21852 18.4415 4.61544 18.699 5.05269 18.8604C5.40835 18.9988 5.94185 19.1629 6.92544 19.2078C7.98877 19.2564 8.30685 19.2665 11 19.2665C13.6932 19.2665 14.0113 19.2564 15.0746 19.2078C16.0582 19.1629 16.5917 18.9988 16.9474 18.8604C17.4176 18.677 17.754 18.4598 18.1069 18.1069C18.4415 17.7815 18.6991 17.3845 18.8604 16.9473C18.9989 16.5916 19.1629 16.0581 19.2079 15.0745C19.2564 14.0112 19.2665 13.6922 19.2665 11C19.2665 8.30771 19.2564 7.98871 19.2079 6.92538C19.1629 5.94179 18.9989 5.40829 18.8604 5.05263C18.6771 4.58238 18.4599 4.24596 18.1069 3.89304C17.7815 3.55852 17.3852 3.30107 16.9474 3.13954C16.5917 3.00113 16.0582 2.83704 15.0746 2.79213ZM9.7121 14.1084C10.4314 14.4078 11.2323 14.4482 11.978 14.2227C12.7238 13.9972 13.3681 13.5198 13.801 12.872C14.2339 12.2242 14.4284 11.4463 14.3514 10.671C14.2744 9.89569 13.9306 9.17118 13.3788 8.62121C13.027 8.26965 12.6016 8.00045 12.1333 7.83301C11.665 7.66557 11.1654 7.60404 10.6705 7.65286C10.1755 7.70167 9.69758 7.85962 9.27101 8.11533C8.84444 8.37104 8.47987 8.71814 8.20355 9.13166C7.92723 9.54517 7.74603 10.0148 7.67299 10.5068C7.59996 10.9987 7.63691 11.5007 7.78118 11.9767C7.92545 12.4526 8.17346 12.8907 8.50735 13.2593C8.84123 13.6279 9.25269 13.9179 9.7121 14.1084ZM7.33519 7.33513C7.81646 6.85385 8.38781 6.47209 9.01663 6.21162C9.64544 5.95116 10.3194 5.8171 11 5.8171C11.6806 5.8171 12.3546 5.95116 12.9834 6.21162C13.6122 6.47209 14.1836 6.85385 14.6649 7.33513C15.1461 7.8164 15.5279 8.38775 15.7884 9.01657C16.0488 9.64538 16.1829 10.3193 16.1829 11C16.1829 11.6806 16.0488 12.3545 15.7884 12.9834C15.5279 13.6122 15.1461 14.1835 14.6649 14.6648C13.6929 15.6368 12.3746 16.1828 11 16.1828C9.62544 16.1828 8.30716 15.6368 7.33519 14.6648C6.36321 13.6928 5.81716 12.3745 5.81716 11C5.81716 9.62538 6.36321 8.3071 7.33519 7.33513ZM17.3324 6.58896C17.4516 6.47646 17.5471 6.34117 17.6131 6.1911C17.6792 6.04104 17.7144 5.87925 17.7168 5.71531C17.7192 5.55138 17.6887 5.38863 17.627 5.2367C17.5654 5.08478 17.4739 4.94676 17.358 4.83083C17.2421 4.7149 17.104 4.6234 16.9521 4.56177C16.8002 4.50013 16.6374 4.4696 16.4735 4.47199C16.3096 4.47438 16.1478 4.50964 15.9977 4.57568C15.8476 4.64172 15.7124 4.7372 15.5999 4.85646C15.3811 5.0884 15.2613 5.39649 15.2659 5.71531C15.2706 6.03414 15.3993 6.3386 15.6247 6.56406C15.8502 6.78953 16.1547 6.91825 16.4735 6.9229C16.7923 6.92755 17.1004 6.80776 17.3324 6.58896Z" fill="#ECBC61"/>
</g>
</g>
<defs>
<clipPath id="clip0_1_35">
<rect width="22" height="22" fill="white"/>
</clipPath>
</defs>
</svg>
