<svg width="25" height="25" viewBox="0 0 25 25" fill="none" xmlns="http://www.w3.org/2000/svg">
<g id="mdi:twitter">
<path id="Vector" d="M23.0333 6.40173C22.2643 6.74915 21.4355 6.97745 20.5767 7.08664C21.4555 6.56055 22.1345 5.72675 22.4541 4.72421C21.6252 5.22052 20.7065 5.56794 19.7378 5.76646C18.9489 4.91281 17.8405 4.4165 16.5822 4.4165C14.2355 4.4165 12.3181 6.32232 12.3181 8.67482C12.3181 9.01231 12.3581 9.33987 12.428 9.64758C8.87289 9.46891 5.70727 7.77154 3.60019 5.20067C3.2307 5.82602 3.02099 6.56055 3.02099 7.33479C3.02099 8.81379 3.76996 10.124 4.92835 10.8685C4.21933 10.8685 3.56025 10.67 2.98105 10.3722V10.402C2.98105 12.4666 4.459 14.1938 6.41629 14.5809C5.78789 14.7518 5.12817 14.7756 4.48896 14.6504C4.76019 15.4965 5.29139 16.237 6.00787 16.7675C6.72436 17.2981 7.59011 17.5922 8.48343 17.6083C6.96916 18.7999 5.09212 19.444 3.1608 19.4348C2.82127 19.4348 2.48174 19.4149 2.14221 19.3752C4.03958 20.5862 6.29646 21.2909 8.71311 21.2909C16.5822 21.2909 20.9062 14.7993 20.9062 9.17113C20.9062 8.98253 20.9062 8.80386 20.8962 8.61526C21.7351 8.01969 22.4541 7.26531 23.0333 6.40173Z" fill="#ECBC61"/>
</g>
</svg>
